<?xml version="1.0" encoding="UTF-8" standalone="no"?>
<!-- Generator: Adobe Illustrator 19.0.0, SVG Export Plug-In . SVG Version: 6.00 Build 0)  -->

<svg
   xmlns:dc="http://purl.org/dc/elements/1.1/"
   xmlns:cc="http://creativecommons.org/ns#"
   xmlns:rdf="http://www.w3.org/1999/02/22-rdf-syntax-ns#"
   xmlns:svg="http://www.w3.org/2000/svg"
   xmlns="http://www.w3.org/2000/svg"
   xmlns:sodipodi="http://sodipodi.sourceforge.net/DTD/sodipodi-0.dtd"
   xmlns:inkscape="http://www.inkscape.org/namespaces/inkscape"
   version="1.1"
   id="Capa_1"
   x="0px"
   y="0px"
   viewBox="0 0 512 512"
   style="enable-background:new 0 0 512 512;"
   xml:space="preserve"
   sodipodi:docname="laravel-api-response-builder-icon.svg"
   inkscape:version="0.92.4 (5da689c313, 2019-01-14)"><title
   id="title1070">Laravel API Response Builder icon</title><metadata
   id="metadata3891"><rdf:RDF><cc:Work
       rdf:about=""><dc:format>image/svg+xml</dc:format><dc:type
         rdf:resource="http://purl.org/dc/dcmitype/StillImage" /><dc:title>Laravel API Response Builder icon</dc:title><dc:date>2019-09-22</dc:date><dc:creator><cc:Agent><dc:title>Marcin Orlowski</dc:title></cc:Agent></dc:creator><cc:license
         rdf:resource="http://creativecommons.org/licenses/by/4.0/" /><dc:source>https://github.com/MarcinOrlowski/laravel-api-response-builder</dc:source><dc:description /></cc:Work><cc:License
       rdf:about="http://creativecommons.org/licenses/by/4.0/"><cc:permits
         rdf:resource="http://creativecommons.org/ns#Reproduction" /><cc:permits
         rdf:resource="http://creativecommons.org/ns#Distribution" /><cc:requires
         rdf:resource="http://creativecommons.org/ns#Notice" /><cc:requires
         rdf:resource="http://creativecommons.org/ns#Attribution" /><cc:permits
         rdf:resource="http://creativecommons.org/ns#DerivativeWorks" /></cc:License></rdf:RDF></metadata><defs
   id="defs3889" /><sodipodi:namedview
   pagecolor="#ffffff"
   bordercolor="#666666"
   borderopacity="1"
   objecttolerance="10"
   gridtolerance="10"
   guidetolerance="10"
   inkscape:pageopacity="0"
   inkscape:pageshadow="2"
   inkscape:window-width="2450"
   inkscape:window-height="1413"
   id="namedview3887"
   showgrid="false"
   showguides="true"
   inkscape:guide-bbox="true"
   inkscape:zoom="0.83105469"
   inkscape:cx="-33.10244"
   inkscape:cy="251.88028"
   inkscape:window-x="110"
   inkscape:window-y="0"
   inkscape:window-maximized="1"
   inkscape:current-layer="Capa_1"
   inkscape:pagecheckerboard="true" />
<circle
   style="fill:#F1333F;"
   cx="256"
   cy="256"
   r="256"
   id="circle3822" />
<path
   style="fill:#AE283F;"
   d="M512,256c0-12.301-0.887-24.393-2.564-36.231L420.667,131L91.333,381l128.436,128.436  C231.607,511.113,243.699,512,256,512C397.385,512,512,397.385,512,256z"
   id="path3824" />
<rect
   x="91.33"
   y="131"
   style="fill:#FFFFFF;"
   width="329.33"
   height="250"
   id="rect3826" />
<g
   id="g3832">
	<rect
   x="256"
   y="131"
   style="fill:#E0E0E0;"
   width="164.67"
   height="250"
   id="rect3828" />
	<rect
   x="91.33"
   y="131"
   style="fill:#E0E0E0;"
   width="329.33"
   height="32.17"
   id="rect3830" />
</g>
<rect
   x="256"
   y="131"
   style="fill:#C0C0C0;"
   width="164.67"
   height="32.17"
   id="rect3834" />
<g
   id="g3842">
	<circle
   style="fill:#FF6838;"
   cx="111.17"
   cy="147.08"
   r="8.917"
   id="circle3836" />
	<circle
   style="fill:#FF6838;"
   cx="137.92"
   cy="147.08"
   r="8.917"
   id="circle3838" />
	<circle
   style="fill:#FF6838;"
   cx="164.67"
   cy="147.08"
   r="8.917"
   id="circle3840" />
</g>
<path
   inkscape:connector-curvature="0"
   class="st0"
   d="m 230.99665,202.52564 c -0.0132,-0.057 -0.0481,-0.10524 -0.0657,-0.16221 -0.0395,-0.10082 -0.0702,-0.20604 -0.12275,-0.29809 -0.0351,-0.0613 -0.0878,-0.114 -0.13152,-0.17098 -0.057,-0.0746 -0.10525,-0.15782 -0.17097,-0.22359 -0.057,-0.057 -0.12714,-0.0964 -0.18851,-0.14465 -0.0702,-0.057 -0.13152,-0.11837 -0.21043,-0.16221 0,0 0,0 0,0 0,0 0,0 0,0 l -22.99376,-13.23948 c -0.59183,-0.34194 -1.31956,-0.34194 -1.91138,0 l -22.99373,13.23948 c 0,0 0,0 0,0 0,0 0,0 0,0 -0.0789,0.0438 -0.14029,0.10959 -0.21044,0.16221 -0.0613,0.0481 -0.13151,0.0876 -0.1885,0.14465 -0.0657,0.0657 -0.11398,0.14906 -0.17098,0.22359 -0.0438,0.057 -0.0964,0.1096 -0.1315,0.17098 -0.0527,0.0921 -0.0878,0.19727 -0.12276,0.29809 -0.0219,0.0527 -0.0527,0.10525 -0.0657,0.16221 -0.0439,0.16221 -0.0658,0.3288 -0.0658,0.49977 v 25.14623 l -19.16216,11.03435 v -49.19647 c 0,-0.17097 -0.0219,-0.33756 -0.0657,-0.49977 -0.0132,-0.057 -0.0481,-0.10525 -0.0657,-0.1622 -0.0394,-0.10083 -0.0702,-0.20604 -0.12276,-0.29811 -0.0351,-0.0613 -0.0877,-0.11398 -0.1315,-0.17097 -0.057,-0.0745 -0.10525,-0.15782 -0.17098,-0.22359 -0.057,-0.057 -0.12713,-0.0964 -0.18852,-0.14465 -0.0702,-0.057 -0.13151,-0.11838 -0.21043,-0.16222 0,0 0,0 0,0 0,0 0,0 0,0 l -22.99371,-13.23948 c -0.59183,-0.34194 -1.31957,-0.34194 -1.9114,0 l -22.99371,13.23948 c 0,0 0,0 0,0 0,0 0,0 0,0 -0.0789,0.0439 -0.1403,0.1096 -0.21043,0.16222 -0.0613,0.0481 -0.13152,0.0877 -0.18851,0.14465 -0.0657,0.0658 -0.11398,0.14906 -0.17098,0.22359 -0.0438,0.057 -0.0964,0.1096 -0.13151,0.17097 -0.0527,0.0921 -0.0878,0.19727 -0.12275,0.29811 -0.0219,0.0527 -0.0527,0.10524 -0.0657,0.1622 -0.0439,0.16221 -0.0657,0.3288 -0.0657,0.49977 v 78.76171 c 0,0.68389 0.36826,1.31956 0.96008,1.66151 l 45.99182,26.47894 c 0.10083,0.057 0.21044,0.0921 0.31565,0.13151 0.0481,0.0176 0.0964,0.0483 0.14905,0.0613 0.16221,0.0439 0.32441,0.0657 0.491,0.0657 0.16659,0 0.3288,-0.0219 0.491,-0.0657 0.0438,-0.0132 0.0832,-0.0395 0.12714,-0.0527 0.11398,-0.0394 0.22796,-0.0789 0.33317,-0.1359 l 45.99183,-26.47894 c 0.59621,-0.34196 0.96008,-0.97324 0.96008,-1.66152 V 243.6292 l 22.03364,-12.6871 c 0.5962,-0.34193 0.96008,-0.97323 0.96008,-1.6615 v -26.25537 c -0.0219,-0.17097 -0.0483,-0.33756 -0.0877,-0.49976 z m -70.84432,64.04047 -19.1271,-10.82392 20.08718,-11.56481 c 0,0 0,0 0,0 l 22.03802,-12.6871 19.14462,11.0212 -14.04611,8.01821 z m 44.08043,-49.1921 v 21.83198 l -8.04891,-4.63381 -11.11764,-6.40054 v -21.83198 l 8.04889,4.63382 z m 1.91576,-25.37857 19.15341,11.02997 -19.15341,11.02998 -19.15338,-11.02998 z m -59.02086,55.81621 -8.04889,4.63382 v -48.08734 l 11.11765,-6.40054 8.0489,-4.63382 v 48.08295 z m -9.96466,-68.82772 19.15338,11.02998 -19.15338,11.02997 -19.15341,-11.02997 z m -21.08234,14.33984 8.0489,4.63382 11.11765,6.40054 v 51.39721 c 0,0 0,0.004 0,0.004 0,0 0,0.004 0,0.004 0,0.0746 0.0219,0.14468 0.0307,0.21482 0.0132,0.0921 0.0132,0.18851 0.0394,0.28057 0,0 0,0.004 0,0.004 0.0219,0.0746 0.0613,0.14467 0.0921,0.21481 0.0351,0.0789 0.057,0.16659 0.10082,0.24112 0,0 0,0.004 0.004,0.004 0.0394,0.0657 0.0965,0.12276 0.14467,0.18413 0.0527,0.0702 0.0964,0.14028 0.15782,0.20165 0,0 0.004,0.004 0.004,0.004 0.0527,0.0527 0.12275,0.0921 0.18413,0.14028 0.0702,0.0527 0.13152,0.11399 0.20604,0.15783 0.004,0 0.004,0 0.008,0.004 0.004,0 0.004,0.004 0.008,0.004 l 22.02488,12.4635 v 22.04681 l -42.17342,-24.26945 z m 88.1521,74.33833 -42.16027,24.27382 v -22.05118 l 31.22235,-17.82506 10.93792,-6.24271 z m 22.99371,-39.49046 -19.16216,11.03435 v -21.83198 l 11.11765,-6.40053 8.04888,-4.63382 v 21.83198 z"
   id="path3982"
   style="fill:#f1333f;fill-opacity:1;stroke-width:0.43839309" />

<g
   id="g3854"
   transform="matrix(0.38009637,0,0,0.38009637,71.114523,272.97698)">
	<path
   style="fill:#f1333f;fill-opacity:1"
   d="m 104.153,246.216 24.743,-64.349 h 12.054 l 24.652,64.349 h -15.771 l -4.984,-14.411 h -20.03 l -4.894,14.411 z m 30.725,-48.579 -7.704,23.927 h 15.136 z"
   id="path3848"
   inkscape:connector-curvature="0" />
	<path
   style="fill:#f1333f;fill-opacity:1"
   d="m 171.492,246.216 v -64.349 h 27.462 c 3.081,0 5.905,0.634 8.474,1.903 2.567,1.269 4.772,2.931 6.616,4.985 1.843,2.055 3.293,4.381 4.351,6.979 1.057,2.599 1.586,5.227 1.586,7.885 0,2.841 -0.499,5.56 -1.495,8.157 -0.997,2.599 -2.388,4.925 -4.17,6.979 -1.782,2.055 -3.942,3.686 -6.479,4.894 -2.538,1.209 -5.348,1.813 -8.429,1.813 h -13.052 v 20.755 H 171.492 Z M 186.355,212.5 h 12.146 c 1.751,0 3.263,-0.755 4.531,-2.266 1.269,-1.51 1.903,-3.716 1.903,-6.616 0,-1.51 -0.197,-2.81 -0.589,-3.897 -0.395,-1.088 -0.922,-1.994 -1.587,-2.719 -0.665,-0.725 -1.42,-1.253 -2.266,-1.586 -0.847,-0.332 -1.692,-0.499 -2.537,-0.499 H 186.354 V 212.5 Z"
   id="path3850"
   inkscape:connector-curvature="0" />
	<path
   style="fill:#f1333f;fill-opacity:1"
   d="m 227.685,246.216 v -64.349 h 14.863 v 64.349 z"
   id="path3852"
   inkscape:connector-curvature="0" />
</g>
<g
   id="g3856">
</g>
<g
   id="g3858">
</g>
<g
   id="g3860">
</g>
<g
   id="g3862">
</g>
<g
   id="g3864">
</g>
<g
   id="g3866">
</g>
<g
   id="g3868">
</g>
<g
   id="g3870">
</g>
<g
   id="g3872">
</g>
<g
   id="g3874">
</g>
<g
   id="g3876">
</g>
<g
   id="g3878">
</g>
<g
   id="g3880">
</g>
<g
   id="g3882">
</g>
<g
   id="g3884">
</g>
<g
   id="g5859"><path
     id="path3844"
     d="M398.935,288.631l12.22-12.22c-6.986-9.995-15.69-18.699-25.685-25.685l-12.22,12.22  c-8.682-5.628-18.436-9.741-28.888-11.972v-17.289c-5.897-1.043-11.966-1.589-18.162-1.589c-6.196,0-12.265,0.546-18.162,1.589  v17.289c-10.452,2.23-20.205,6.344-28.888,11.971l-12.22-12.22c-9.995,6.986-18.699,15.69-25.685,25.685l12.22,12.22  c-5.628,8.682-9.741,18.436-11.972,28.888h-17.289c-1.043,5.897-1.589,11.966-1.589,18.162c0,6.196,0.546,12.265,1.589,18.162  h17.289c2.23,10.452,6.344,20.205,11.972,28.888l-12.22,12.22c6.986,9.995,15.69,18.699,25.685,25.685l12.22-12.22  c8.682,5.628,18.436,9.741,28.888,11.972v17.289c5.897,1.043,11.966,1.589,18.162,1.589c6.196,0,12.265-0.546,18.162-1.589v-17.289  c10.452-2.23,20.205-6.344,28.888-11.972l12.22,12.22c9.995-6.986,18.699-15.69,25.685-25.685l-12.22-12.22  c5.628-8.683,9.741-18.436,11.972-28.888h17.289c1.043-5.897,1.589-11.966,1.589-18.162c0-6.196-0.546-12.265-1.589-18.162h-17.289  C408.676,307.067,404.563,297.314,398.935,288.631z M326.2,373.937c-21.128,0-38.256-17.128-38.256-38.256  s17.128-38.256,38.256-38.256s38.256,17.128,38.256,38.256S347.327,373.937,326.2,373.937z"
     style="fill:#005C83;" /><path
     id="path3846"
     d="M428.195,353.844c1.043-5.897,1.589-11.966,1.589-18.163c0-6.196-0.546-12.265-1.589-18.162h-17.289  c-2.23-10.452-6.344-20.206-11.971-28.888l12.22-12.22c-6.986-9.995-15.69-18.699-25.685-25.685l-12.22,12.22  c-8.682-5.628-18.436-9.742-28.888-11.972v-17.289c-5.897-1.043-11.966-1.589-18.162-1.589c-0.402,0-0.799,0.022-1.199,0.026v65.333  c0.399-0.012,0.797-0.03,1.199-0.03c21.128,0,38.256,17.127,38.256,38.255s-17.127,38.256-38.256,38.256  c-0.402,0-0.8-0.018-1.199-0.03v65.333c0.401,0.004,0.798,0.026,1.199,0.026c6.197,0,12.265-0.546,18.162-1.589v-17.289  c10.452-2.23,20.205-6.344,28.888-11.972l12.22,12.22c9.995-6.986,18.699-15.69,25.685-25.686l-12.22-12.22  c5.628-8.683,9.741-18.436,11.971-28.888h17.289V353.844z"
     style="fill:#00263F;" /></g><style
   id="style5764"
   type="text/css">
	.st0{fill:#76C2AF;}
	.st1{opacity:0.2;fill:#231F20;}
	.st2{fill:#4F5D73;}
	.st3{fill:#E0E0D1;}
</style></svg>