<?xml version="1.0" encoding="UTF-8" standalone="no"?>
<!-- Created with Inkscape (http://www.inkscape.org/) -->

<svg
   xmlns:dc="http://purl.org/dc/elements/1.1/"
   xmlns:cc="http://creativecommons.org/ns#"
   xmlns:rdf="http://www.w3.org/1999/02/22-rdf-syntax-ns#"
   xmlns:svg="http://www.w3.org/2000/svg"
   xmlns="http://www.w3.org/2000/svg"
   xmlns:sodipodi="http://sodipodi.sourceforge.net/DTD/sodipodi-0.dtd"
   xmlns:inkscape="http://www.inkscape.org/namespaces/inkscape"
   width="450mm"
   height="130mm"
   viewBox="0 0 450 130"
   version="1.1"
   id="svg8"
   inkscape:version="0.92.4 (5da689c313, 2019-01-14)"
   sodipodi:docname="laravel-api-response-builder-logo.svg"
   inkscape:export-filename="/home/carlos/Downloads/api-response-builder-logo.png"
   inkscape:export-xdpi="37.330002"
   inkscape:export-ydpi="37.330002">
  <title
     id="title4925">Laravel API Response Builder logo</title>
  <defs
     id="defs2" />
  <sodipodi:namedview
     id="base"
     pagecolor="#ffffff"
     bordercolor="#666666"
     borderopacity="1.0"
     inkscape:pageopacity="0.0"
     inkscape:pageshadow="2"
     inkscape:zoom="0.5"
     inkscape:cx="933.0288"
     inkscape:cy="-72.422521"
     inkscape:document-units="mm"
     inkscape:current-layer="layer1"
     showgrid="false"
     width="5600mm"
     showguides="true"
     inkscape:guide-bbox="true"
     inkscape:window-width="2450"
     inkscape:window-height="1413"
     inkscape:window-x="110"
     inkscape:window-y="0"
     inkscape:window-maximized="1"
     inkscape:pagecheckerboard="true" />
  <metadata
     id="metadata5">
    <rdf:RDF>
      <cc:Work
         rdf:about="">
        <dc:format>image/svg+xml</dc:format>
        <dc:type
           rdf:resource="http://purl.org/dc/dcmitype/StillImage" />
        <dc:title>Laravel API Response Builder logo</dc:title>
        <dc:creator>
          <cc:Agent>
            <dc:title>Marcin Orlowski</dc:title>
          </cc:Agent>
        </dc:creator>
        <dc:date>2019-09-22</dc:date>
        <cc:license
           rdf:resource="http://creativecommons.org/licenses/by/4.0/" />
      </cc:Work>
      <cc:License
         rdf:about="http://creativecommons.org/licenses/by/4.0/">
        <cc:permits
           rdf:resource="http://creativecommons.org/ns#Reproduction" />
        <cc:permits
           rdf:resource="http://creativecommons.org/ns#Distribution" />
        <cc:requires
           rdf:resource="http://creativecommons.org/ns#Notice" />
        <cc:requires
           rdf:resource="http://creativecommons.org/ns#Attribution" />
        <cc:permits
           rdf:resource="http://creativecommons.org/ns#DerivativeWorks" />
      </cc:License>
    </rdf:RDF>
  </metadata>
  <g
     inkscape:label="Layer 1"
     inkscape:groupmode="layer"
     id="layer1"
     transform="translate(0,-167)">
    <g
       id="g4863"
       transform="translate(-51.262744,40.217005)">
      <g
         transform="matrix(0.24088662,0,0,0.24088662,55.108942,130.11602)"
         id="g966">
        <circle
           style="fill:#f1333f"
           cx="256"
           cy="256"
           r="256"
           id="circle3822" />
        <path
           inkscape:connector-curvature="0"
           style="fill:#ae283f"
           d="m 512,256 c 0,-12.301 -0.887,-24.393 -2.564,-36.231 L 420.667,131 91.333,381 219.769,509.436 C 231.607,511.113 243.699,512 256,512 397.385,512 512,397.385 512,256 Z"
           id="path3824" />
        <rect
           x="91.330002"
           y="131"
           style="fill:#ffffff"
           width="329.32999"
           height="250"
           id="rect3826" />
        <g
           id="g3832">
          <rect
             x="256"
             y="131"
             style="fill:#e0e0e0"
             width="164.67"
             height="250"
             id="rect3828" />
          <rect
             x="91.330002"
             y="131"
             style="fill:#e0e0e0"
             width="329.32999"
             height="32.169998"
             id="rect3830" />
        </g>
        <rect
           x="256"
           y="131"
           style="fill:#c0c0c0"
           width="164.67"
           height="32.169998"
           id="rect3834" />
        <g
           id="g3842">
          <circle
             style="fill:#ff6838"
             cx="111.17"
             cy="147.08"
             r="8.9169998"
             id="circle3836" />
          <circle
             style="fill:#ff6838"
             cx="137.92"
             cy="147.08"
             r="8.9169998"
             id="circle3838" />
          <circle
             style="fill:#ff6838"
             cx="164.67"
             cy="147.08"
             r="8.9169998"
             id="circle3840" />
        </g>
        <path
           inkscape:connector-curvature="0"
           class="st0"
           d="m 230.99665,202.52564 c -0.0132,-0.057 -0.0481,-0.10524 -0.0657,-0.16221 -0.0395,-0.10082 -0.0702,-0.20604 -0.12275,-0.29809 -0.0351,-0.0613 -0.0878,-0.114 -0.13152,-0.17098 -0.057,-0.0746 -0.10525,-0.15782 -0.17097,-0.22359 -0.057,-0.057 -0.12714,-0.0964 -0.18851,-0.14465 -0.0702,-0.057 -0.13152,-0.11837 -0.21043,-0.16221 0,0 0,0 0,0 0,0 0,0 0,0 l -22.99376,-13.23948 c -0.59183,-0.34194 -1.31956,-0.34194 -1.91138,0 l -22.99373,13.23948 c 0,0 0,0 0,0 0,0 0,0 0,0 -0.0789,0.0438 -0.14029,0.10959 -0.21044,0.16221 -0.0613,0.0481 -0.13151,0.0876 -0.1885,0.14465 -0.0657,0.0657 -0.11398,0.14906 -0.17098,0.22359 -0.0438,0.057 -0.0964,0.1096 -0.1315,0.17098 -0.0527,0.0921 -0.0878,0.19727 -0.12276,0.29809 -0.0219,0.0527 -0.0527,0.10525 -0.0657,0.16221 -0.0439,0.16221 -0.0658,0.3288 -0.0658,0.49977 v 25.14623 l -19.16216,11.03435 v -49.19647 c 0,-0.17097 -0.0219,-0.33756 -0.0657,-0.49977 -0.0132,-0.057 -0.0481,-0.10525 -0.0657,-0.1622 -0.0394,-0.10083 -0.0702,-0.20604 -0.12276,-0.29811 -0.0351,-0.0613 -0.0877,-0.11398 -0.1315,-0.17097 -0.057,-0.0745 -0.10525,-0.15782 -0.17098,-0.22359 -0.057,-0.057 -0.12713,-0.0964 -0.18852,-0.14465 -0.0702,-0.057 -0.13151,-0.11838 -0.21043,-0.16222 0,0 0,0 0,0 0,0 0,0 0,0 l -22.99371,-13.23948 c -0.59183,-0.34194 -1.31957,-0.34194 -1.9114,0 l -22.99371,13.23948 c 0,0 0,0 0,0 0,0 0,0 0,0 -0.0789,0.0439 -0.1403,0.1096 -0.21043,0.16222 -0.0613,0.0481 -0.13152,0.0877 -0.18851,0.14465 -0.0657,0.0658 -0.11398,0.14906 -0.17098,0.22359 -0.0438,0.057 -0.0964,0.1096 -0.13151,0.17097 -0.0527,0.0921 -0.0878,0.19727 -0.12275,0.29811 -0.0219,0.0527 -0.0527,0.10524 -0.0657,0.1622 -0.0439,0.16221 -0.0657,0.3288 -0.0657,0.49977 v 78.76171 c 0,0.68389 0.36826,1.31956 0.96008,1.66151 l 45.99182,26.47894 c 0.10083,0.057 0.21044,0.0921 0.31565,0.13151 0.0481,0.0176 0.0964,0.0483 0.14905,0.0613 0.16221,0.0439 0.32441,0.0657 0.491,0.0657 0.16659,0 0.3288,-0.0219 0.491,-0.0657 0.0438,-0.0132 0.0832,-0.0395 0.12714,-0.0527 0.11398,-0.0394 0.22796,-0.0789 0.33317,-0.1359 l 45.99183,-26.47894 c 0.59621,-0.34196 0.96008,-0.97324 0.96008,-1.66152 V 243.6292 l 22.03364,-12.6871 c 0.5962,-0.34193 0.96008,-0.97323 0.96008,-1.6615 v -26.25537 c -0.0219,-0.17097 -0.0483,-0.33756 -0.0877,-0.49976 z m -70.84432,64.04047 -19.1271,-10.82392 20.08718,-11.56481 c 0,0 0,0 0,0 l 22.03802,-12.6871 19.14462,11.0212 -14.04611,8.01821 z m 44.08043,-49.1921 v 21.83198 l -8.04891,-4.63381 -11.11764,-6.40054 v -21.83198 l 8.04889,4.63382 z m 1.91576,-25.37857 19.15341,11.02997 -19.15341,11.02998 -19.15338,-11.02998 z m -59.02086,55.81621 -8.04889,4.63382 v -48.08734 l 11.11765,-6.40054 8.0489,-4.63382 v 48.08295 z m -9.96466,-68.82772 19.15338,11.02998 -19.15338,11.02997 -19.15341,-11.02997 z m -21.08234,14.33984 8.0489,4.63382 11.11765,6.40054 v 51.39721 c 0,0 0,0.004 0,0.004 0,0 0,0.004 0,0.004 0,0.0746 0.0219,0.14468 0.0307,0.21482 0.0132,0.0921 0.0132,0.18851 0.0394,0.28057 0,0 0,0.004 0,0.004 0.0219,0.0746 0.0613,0.14467 0.0921,0.21481 0.0351,0.0789 0.057,0.16659 0.10082,0.24112 0,0 0,0.004 0.004,0.004 0.0394,0.0657 0.0965,0.12276 0.14467,0.18413 0.0527,0.0702 0.0964,0.14028 0.15782,0.20165 0,0 0.004,0.004 0.004,0.004 0.0527,0.0527 0.12275,0.0921 0.18413,0.14028 0.0702,0.0527 0.13152,0.11399 0.20604,0.15783 0.004,0 0.004,0 0.008,0.004 0.004,0 0.004,0.004 0.008,0.004 l 22.02488,12.4635 v 22.04681 l -42.17342,-24.26945 z m 88.1521,74.33833 -42.16027,24.27382 v -22.05118 l 31.22235,-17.82506 10.93792,-6.24271 z m 22.99371,-39.49046 -19.16216,11.03435 v -21.83198 l 11.11765,-6.40053 8.04888,-4.63382 v 21.83198 z"
           id="path3982"
           style="fill:#f1333f;fill-opacity:1;stroke-width:0.43839309" />
        <g
           id="g3854"
           transform="matrix(0.38009637,0,0,0.38009637,71.114523,272.97698)">
          <path
             style="fill:#f1333f;fill-opacity:1"
             d="m 104.153,246.216 24.743,-64.349 h 12.054 l 24.652,64.349 h -15.771 l -4.984,-14.411 h -20.03 l -4.894,14.411 z m 30.725,-48.579 -7.704,23.927 h 15.136 z"
             id="path3848"
             inkscape:connector-curvature="0" />
          <path
             style="fill:#f1333f;fill-opacity:1"
             d="m 171.492,246.216 v -64.349 h 27.462 c 3.081,0 5.905,0.634 8.474,1.903 2.567,1.269 4.772,2.931 6.616,4.985 1.843,2.055 3.293,4.381 4.351,6.979 1.057,2.599 1.586,5.227 1.586,7.885 0,2.841 -0.499,5.56 -1.495,8.157 -0.997,2.599 -2.388,4.925 -4.17,6.979 -1.782,2.055 -3.942,3.686 -6.479,4.894 -2.538,1.209 -5.348,1.813 -8.429,1.813 h -13.052 v 20.755 H 171.492 Z M 186.355,212.5 h 12.146 c 1.751,0 3.263,-0.755 4.531,-2.266 1.269,-1.51 1.903,-3.716 1.903,-6.616 0,-1.51 -0.197,-2.81 -0.589,-3.897 -0.395,-1.088 -0.922,-1.994 -1.587,-2.719 -0.665,-0.725 -1.42,-1.253 -2.266,-1.586 -0.847,-0.332 -1.692,-0.499 -2.537,-0.499 H 186.354 V 212.5 Z"
             id="path3850"
             inkscape:connector-curvature="0" />
          <path
             style="fill:#f1333f;fill-opacity:1"
             d="m 227.685,246.216 v -64.349 h 14.863 v 64.349 z"
             id="path3852"
             inkscape:connector-curvature="0" />
        </g>
        <g
           id="g3856" />
        <g
           id="g3858" />
        <g
           id="g3860" />
        <g
           id="g3862" />
        <g
           id="g3864" />
        <g
           id="g3866" />
        <g
           id="g3868" />
        <g
           id="g3870" />
        <g
           id="g3872" />
        <g
           id="g3874" />
        <g
           id="g3876" />
        <g
           id="g3878" />
        <g
           id="g3880" />
        <g
           id="g3882" />
        <g
           id="g3884" />
        <g
           id="g5859">
          <path
             inkscape:connector-curvature="0"
             id="path3844"
             d="m 398.935,288.631 12.22,-12.22 c -6.986,-9.995 -15.69,-18.699 -25.685,-25.685 l -12.22,12.22 c -8.682,-5.628 -18.436,-9.741 -28.888,-11.972 v -17.289 c -5.897,-1.043 -11.966,-1.589 -18.162,-1.589 -6.196,0 -12.265,0.546 -18.162,1.589 v 17.289 c -10.452,2.23 -20.205,6.344 -28.888,11.971 l -12.22,-12.22 c -9.995,6.986 -18.699,15.69 -25.685,25.685 l 12.22,12.22 c -5.628,8.682 -9.741,18.436 -11.972,28.888 h -17.289 c -1.043,5.897 -1.589,11.966 -1.589,18.162 0,6.196 0.546,12.265 1.589,18.162 h 17.289 c 2.23,10.452 6.344,20.205 11.972,28.888 l -12.22,12.22 c 6.986,9.995 15.69,18.699 25.685,25.685 l 12.22,-12.22 c 8.682,5.628 18.436,9.741 28.888,11.972 v 17.289 c 5.897,1.043 11.966,1.589 18.162,1.589 6.196,0 12.265,-0.546 18.162,-1.589 v -17.289 c 10.452,-2.23 20.205,-6.344 28.888,-11.972 l 12.22,12.22 c 9.995,-6.986 18.699,-15.69 25.685,-25.685 l -12.22,-12.22 c 5.628,-8.683 9.741,-18.436 11.972,-28.888 h 17.289 c 1.043,-5.897 1.589,-11.966 1.589,-18.162 0,-6.196 -0.546,-12.265 -1.589,-18.162 h -17.289 c -2.231,-10.451 -6.344,-20.204 -11.972,-28.887 z M 326.2,373.937 c -21.128,0 -38.256,-17.128 -38.256,-38.256 0,-21.128 17.128,-38.256 38.256,-38.256 21.128,0 38.256,17.128 38.256,38.256 0,21.128 -17.129,38.256 -38.256,38.256 z"
             style="fill:#005c83" />
          <path
             inkscape:connector-curvature="0"
             id="path3846"
             d="m 428.195,353.844 c 1.043,-5.897 1.589,-11.966 1.589,-18.163 0,-6.196 -0.546,-12.265 -1.589,-18.162 h -17.289 c -2.23,-10.452 -6.344,-20.206 -11.971,-28.888 l 12.22,-12.22 c -6.986,-9.995 -15.69,-18.699 -25.685,-25.685 l -12.22,12.22 c -8.682,-5.628 -18.436,-9.742 -28.888,-11.972 v -17.289 c -5.897,-1.043 -11.966,-1.589 -18.162,-1.589 -0.402,0 -0.799,0.022 -1.199,0.026 v 65.333 c 0.399,-0.012 0.797,-0.03 1.199,-0.03 21.128,0 38.256,17.127 38.256,38.255 0,21.128 -17.127,38.256 -38.256,38.256 -0.402,0 -0.8,-0.018 -1.199,-0.03 v 65.333 c 0.401,0.004 0.798,0.026 1.199,0.026 6.197,0 12.265,-0.546 18.162,-1.589 v -17.289 c 10.452,-2.23 20.205,-6.344 28.888,-11.972 l 12.22,12.22 c 9.995,-6.986 18.699,-15.69 25.685,-25.686 l -12.22,-12.22 c 5.628,-8.683 9.741,-18.436 11.971,-28.888 h 17.289 z"
             style="fill:#00263f" />
        </g>
      </g>
      <g
         transform="matrix(0.50544539,0,0,0.50544539,173.92188,95.834722)"
         id="g1043">
        <flowRoot
           transform="matrix(0.52346572,0,0,0.52346572,-382.83299,-6.9444891)"
           style="font-style:normal;font-weight:normal;font-size:40px;line-height:1.25;font-family:sans-serif;letter-spacing:0px;word-spacing:0px;fill:#000000;fill-opacity:1;stroke:none"
           id="flowRoot1060"
           xml:space="preserve"><flowRegion
             id="flowRegion1062"><rect
               y="469.90552"
               x="764"
               height="248"
               width="1264"
               id="rect1064" /></flowRegion><flowPara
             id="flowPara1066" /></flowRoot>        <g
           transform="translate(0,14.587488)"
           id="g4800">
          <g
             id="g1083">
            <polygon
               style="fill:#f1333f;fill-opacity:1"
               points="60.019,218.301 125.592,218.301 125.592,197.897 82.8,197.897 82.8,79.626 60.019,79.626 "
               id="polygon1029" />
            <path
               inkscape:connector-curvature="0"
               style="fill:#f1333f;fill-opacity:1"
               d="m 206.02,138.464 c -2.906,-4.622 -7.033,-8.253 -12.382,-10.896 -5.348,-2.641 -10.731,-3.963 -16.145,-3.963 -7.003,0 -13.407,1.288 -19.217,3.863 -5.813,2.575 -10.797,6.111 -14.957,10.6 -4.16,4.491 -7.397,9.675 -9.707,15.55 -2.313,5.879 -3.467,12.055 -3.467,18.524 0,6.606 1.154,12.811 3.467,18.621 2.309,5.814 5.546,10.964 9.707,15.453 4.16,4.491 9.145,8.023 14.957,10.598 5.81,2.575 12.214,3.863 19.217,3.863 5.414,0 10.797,-1.321 16.145,-3.962 5.349,-2.64 9.476,-6.272 12.382,-10.896 v 12.48 h 21.594 V 125.981 H 206.02 Z m -1.981,44.97 c -1.321,3.567 -3.17,6.671 -5.546,9.312 -2.378,2.643 -5.251,4.755 -8.618,6.34 -3.368,1.585 -7.102,2.377 -11.194,2.377 -4.095,0 -7.793,-0.792 -11.094,-2.377 -3.302,-1.585 -6.141,-3.697 -8.518,-6.34 -2.378,-2.641 -4.195,-5.745 -5.448,-9.312 -1.258,-3.566 -1.882,-7.33 -1.882,-11.291 0,-3.963 0.624,-7.727 1.882,-11.293 1.253,-3.566 3.07,-6.668 5.448,-9.311 2.377,-2.64 5.215,-4.755 8.518,-6.34 3.301,-1.585 6.999,-2.377 11.094,-2.377 4.093,0 7.826,0.792 11.194,2.377 3.367,1.585 6.24,3.699 8.618,6.34 2.377,2.643 4.225,5.745 5.546,9.311 1.319,3.566 1.981,7.33 1.981,11.293 0,3.961 -0.662,7.725 -1.981,11.291 z"
               id="path1031" />
            <path
               inkscape:connector-curvature="0"
               style="fill:#f1333f;fill-opacity:1"
               d="m 381.542,138.464 c -2.906,-4.622 -7.033,-8.253 -12.382,-10.896 -5.348,-2.641 -10.731,-3.963 -16.145,-3.963 -7.003,0 -13.407,1.288 -19.217,3.863 -5.813,2.575 -10.797,6.111 -14.957,10.6 -4.16,4.491 -7.397,9.675 -9.707,15.55 -2.313,5.879 -3.467,12.055 -3.467,18.524 0,6.606 1.154,12.811 3.467,18.621 2.309,5.814 5.546,10.964 9.707,15.453 4.16,4.491 9.145,8.023 14.957,10.598 5.81,2.575 12.214,3.863 19.217,3.863 5.414,0 10.797,-1.321 16.145,-3.962 5.349,-2.64 9.476,-6.272 12.382,-10.896 v 12.48 h 21.594 v -92.318 h -21.594 z m -1.98,44.97 c -1.321,3.567 -3.17,6.671 -5.546,9.312 -2.378,2.643 -5.251,4.755 -8.618,6.34 -3.368,1.585 -7.102,2.377 -11.194,2.377 -4.095,0 -7.793,-0.792 -11.094,-2.377 -3.302,-1.585 -6.141,-3.697 -8.518,-6.34 -2.378,-2.641 -4.195,-5.745 -5.448,-9.312 -1.258,-3.566 -1.882,-7.33 -1.882,-11.291 0,-3.963 0.624,-7.727 1.882,-11.293 1.253,-3.566 3.07,-6.668 5.448,-9.311 2.377,-2.64 5.215,-4.755 8.518,-6.34 3.301,-1.585 6.999,-2.377 11.094,-2.377 4.093,0 7.826,0.792 11.194,2.377 3.367,1.585 6.24,3.699 8.618,6.34 2.377,2.643 4.225,5.745 5.546,9.311 1.319,3.566 1.981,7.33 1.981,11.293 -0.001,3.961 -0.663,7.725 -1.981,11.291 z"
               id="path1033" />
            <rect
               x="618.42603"
               y="79.625999"
               style="fill:#f1333f;fill-opacity:1"
               width="21.593"
               height="138.675"
               id="rect1035" />
            <polygon
               style="fill:#f1333f;fill-opacity:1"
               points="266.244,147.23 303.291,147.23 303.291,125.984 244.652,125.984 244.652,218.301 266.244,218.301 "
               id="polygon1037" />
            <polygon
               style="fill:#f1333f;fill-opacity:1"
               points="462.569,196.678 435.428,125.984 413.558,125.984 449,218.301 476.138,218.301 511.579,125.984 489.709,125.984 "
               id="polygon1039" />
            <path
               inkscape:connector-curvature="0"
               style="fill:#f1333f;fill-opacity:1"
               d="m 558.675,123.61 c -26.442,0 -47.372,21.73 -47.372,48.534 0,29.63 20.256,48.534 50.139,48.534 16.724,0 27.402,-6.395 40.448,-20.321 L 587.302,189.07 c -0.008,0.011 -11.011,14.457 -27.439,14.457 -19.095,0 -27.135,-15.395 -27.135,-23.36 h 71.637 c 3.763,-30.499 -16.288,-56.557 -45.69,-56.557 z m -25.89,40.511 c 0.166,-1.777 2.653,-23.36 25.719,-23.36 23.066,0 25.869,21.58 26.03,23.36 z"
               id="path1041" />
          </g>
          <flowRoot
             xml:space="preserve"
             id="flowRoot1068"
             style="font-style:normal;font-weight:normal;font-size:72px;line-height:1.25;font-family:sans-serif;letter-spacing:0px;word-spacing:0px;fill:#000000;fill-opacity:1;stroke:none"
             transform="matrix(0.52346572,0,0,0.52346572,-328.1553,-42.540154)"><flowRegion
               id="flowRegion1070"><rect
                 id="rect1072"
                 width="1204"
                 height="188"
                 x="818"
                 y="515.90552" /></flowRegion><flowPara
               id="flowPara1074"
               style="font-style:normal;font-variant:normal;font-weight:bold;font-stretch:normal;font-family:'Noto Sans';-inkscape-font-specification:'Noto Sans Bold';fill:#f1333f;fill-opacity:1">REST API Response Builder</flowPara></flowRoot>        </g>
      </g>
    </g>
  </g>
  <style
     type="text/css"
     id="style5764">
	.st0{fill:#76C2AF;}
	.st1{opacity:0.2;fill:#231F20;}
	.st2{fill:#4F5D73;}
	.st3{fill:#E0E0D1;}
</style>
</svg>
